<?xml version="1.0" standalone="no"?>

<svg version="1.0" xmlns="http://www.w3.org/2000/svg"
 width="500.000000pt" height="500.000000pt" viewBox="0 0 500.000000 500.000000"
 preserveAspectRatio="xMidYMid meet">

<g transform="translate(0.000000,500.000000) scale(0.100000,-0.100000)"
fill="#000000" stroke="none">
<path d="M100 3673 l0 -733 132 0 131 0 -6 538 -7 537 81 -285 c45 -157 86
-291 91 -297 6 -8 34 -13 69 -13 45 0 60 4 67 18 5 9 44 132 86 272 43 140 83
273 91 295 11 34 12 -43 7 -512 l-5 -553 131 0 132 0 -2 730 -3 730 -174 2
-174 3 -74 -260 c-41 -143 -78 -263 -82 -268 -4 -4 -35 109 -70 250 -35 142
-67 261 -70 266 -4 4 -85 8 -179 10 l-172 2 0 -732z"/>
<path d="M2107 3334 c-229 -51 -374 -178 -407 -356 -6 -27 -7 -54 -4 -59 3 -5
83 -9 178 -9 l174 0 7 37 c16 89 82 133 201 133 96 0 143 -14 194 -57 46 -40
70 -105 70 -190 l0 -53 -167 0 c-248 -1 -395 -33 -514 -112 -120 -80 -172
-183 -173 -343 -1 -92 2 -105 30 -165 40 -84 75 -124 148 -172 176 -114 452
-112 606 5 24 18 51 38 60 45 16 11 19 7 36 -45 l19 -58 183 -3 c142 -2 182 0
182 10 0 7 -9 38 -21 68 -29 77 -38 225 -39 616 0 356 -3 384 -55 476 -32 58
-118 139 -181 171 -101 51 -180 69 -324 73 -97 3 -154 -1 -203 -12z m413 -887
l0 -123 -32 -35 c-127 -137 -390 -146 -451 -16 -33 69 -12 172 44 224 56 52
138 70 317 72 l122 1 0 -123z"/>
<path d="M3227 3323 c-4 -3 -7 -69 -7 -145 l0 -138 265 0 265 0 0 -555 0 -555
180 0 180 0 2 553 3 552 268 3 268 2 -3 143 -3 142 -706 3 c-388 1 -709 -1
-712 -5z"/>
<path d="M101 2216 c-8 -10 -10 -90 -7 -287 5 -286 10 -330 55 -422 83 -172
296 -249 559 -203 l72 12 0 -278 0 -278 140 0 140 0 0 730 0 729 -32 6 c-18 3
-80 5 -138 3 l-105 -3 -5 -340 -5 -340 -60 -13 c-33 -7 -99 -11 -147 -10 -97
3 -127 18 -163 79 -19 32 -20 55 -23 325 l-3 292 -37 6 c-73 12 -229 7 -241
-8z"/>
</g>
</svg>
